<svg width="73" height="72" viewBox="0 0 73 72" fill="none" xmlns="http://www.w3.org/2000/svg">
<circle cx="36.5" cy="36" r="36" fill="#343A3D"/>
<path d="M59.5955 57.2783H58.8422C58.3579 57.2783 57.9813 57.6549 57.9813 58.1392C57.9813 58.6234 58.3579 59 58.8422 59H59.5955C60.0797 59 60.4564 58.6234 60.4564 58.1392C60.4564 57.6549 60.0797 57.2783 59.5955 57.2783ZM56.4209 57.2783H55.5601V34.4109C55.5601 33.9266 55.1834 33.55 54.6992 33.55C54.2149 33.55 53.8383 33.9266 53.8383 34.4109V57.2783H48.7267V22.8426H53.8383V28.8151C53.8383 29.2993 54.2149 29.676 54.6992 29.676C55.1834 29.676 55.5601 29.2993 55.5601 28.8151V21.9817C55.5601 21.4975 55.1834 21.1208 54.6992 21.1208H47.8658C47.3816 21.1208 47.0049 21.4975 47.0049 21.9817V57.2783H45.5522V29.7298C45.5522 29.2455 45.1755 28.8689 44.6913 28.8689H37.8042C37.3199 28.8689 36.9433 29.2455 36.9433 29.7298V57.2783H35.4905V37.5316C35.4905 37.0473 35.1139 36.6707 34.6296 36.6707H27.7963C27.3121 36.6707 26.9354 37.0473 26.9354 37.5316V57.2783H25.4827V44.4725C25.4827 43.9883 25.106 43.6116 24.6218 43.6116H17.7885C17.3042 43.6116 16.9276 43.9883 16.9276 44.4725V57.2783H12.8921C12.4079 57.2783 12.0312 57.6549 12.0312 58.1392C12.0312 58.6234 12.4079 59 12.8921 59H56.4209C56.9052 59 57.2818 58.6234 57.2818 58.1392C57.2818 57.6549 56.9052 57.2783 56.4209 57.2783ZM38.6651 30.5907H43.7766V57.2783H38.6651V30.5907ZM28.6572 38.3925H33.7687V57.2783H28.6572V38.3925ZM18.6493 45.3334H23.7609V57.2783H18.6493V45.3334Z" fill="white"/>
<path d="M54.6985 30.483C54.2143 30.483 53.8376 30.8596 53.8376 31.3439V32.151C53.8376 32.6352 54.2143 33.0119 54.6985 33.0119C55.1828 33.0119 55.5594 32.6352 55.5594 32.151V31.3439C55.5594 30.8596 55.1828 30.483 54.6985 30.483ZM20.0477 37.2087C20.2091 37.2087 20.3705 37.1549 20.4781 37.1011C27.4729 32.9581 36.8889 26.34 43.4531 17.7848L44.8521 18.7534C45.3901 19.13 46.0896 18.7534 46.1434 18.1615L46.5739 12.8885C46.6277 12.2429 45.982 11.8124 45.3901 12.0814L40.6014 14.3413C40.0096 14.6103 39.9558 15.4174 40.4938 15.7402L42.0004 16.8163C35.5437 25.1562 26.3967 31.5591 19.5634 35.6483C19.133 35.9174 19.0254 36.4016 19.2406 36.8321C19.4558 37.0473 19.7786 37.2087 20.0477 37.2087ZM15.8508 39.5762C16.0122 39.5762 16.1199 39.5223 16.2813 39.4685C16.9269 39.1457 17.6802 38.7153 18.4335 38.2848C18.8639 38.0696 18.9716 37.5315 18.7563 37.1011C18.5411 36.6706 18.0031 36.563 17.5726 36.7783C16.7655 37.2087 16.0661 37.6391 15.4204 37.962C14.9899 38.1772 14.8285 38.7153 15.0437 39.1457C15.259 39.4147 15.528 39.5762 15.8508 39.5762ZM12.8915 41.0827C12.9991 41.0827 13.1605 41.0827 13.2682 41.0289C13.2682 41.0289 13.4834 40.9213 13.9138 40.7061C14.3443 40.4908 14.5057 39.9528 14.2905 39.5223C14.0752 39.0919 13.5372 38.9305 13.1067 39.1457C12.7301 39.3609 12.5149 39.4147 12.5149 39.4147C12.0844 39.63 11.8692 40.1142 12.0844 40.5447C12.2458 40.8675 12.5687 41.0827 12.8915 41.0827Z" fill="white"/>
</svg>
