<svg width="107" height="106" viewBox="0 0 107 106" fill="none" xmlns="http://www.w3.org/2000/svg">
<path d="M53.5014 18.2188C19.7997 18.4454 6.14756 61.36 32.994 81.0287C38.9507 85.3695 46.1312 87.7083 53.5017 87.7082C60.8722 87.7081 68.0526 85.3693 74.0092 81.0283C100.854 61.3642 87.2004 18.4382 53.5014 18.2188ZM35.2827 78.6107C35.0999 75.0987 36.3144 71.6571 38.6609 69.0377C41.0074 66.4182 44.2952 64.8338 47.806 64.6306C48.3959 65.6158 49.2311 66.4313 50.2302 66.9975C51.2292 67.5638 52.3579 67.8615 53.5062 67.8615C54.6545 67.8616 55.7833 67.564 56.7823 66.9978C57.7814 66.4316 58.6167 65.6162 59.2067 64.631C62.7157 64.8368 66.0009 66.4223 68.3452 69.0413C70.6896 71.6604 71.9028 75.1004 71.7201 78.6107C61.6074 86.3223 45.3951 86.3219 35.2827 78.6107ZM53.5014 57.9687C49.5493 57.9644 45.7604 56.3926 42.9659 53.598C40.1713 50.8035 38.5995 47.0146 38.5952 43.0625C39.4133 23.2872 67.5925 23.293 68.4076 43.0626C68.4033 47.0147 66.8314 50.8036 64.0369 53.5981C61.2424 56.3926 57.4534 57.9644 53.5014 57.9687ZM53.5014 61.2812C54.6129 61.2771 55.7217 61.1712 56.8139 60.9647C56.8509 61.4222 56.7927 61.8825 56.643 62.3164C56.4934 62.7503 56.2554 63.1485 55.9442 63.4859C55.633 63.8233 55.2553 64.0925 54.8349 64.2767C54.4144 64.4609 53.9604 64.556 53.5014 64.556C53.0424 64.556 52.5884 64.4609 52.1679 64.2767C51.7475 64.0925 51.3698 63.8233 51.0586 63.4859C50.7474 63.1485 50.5094 62.7503 50.3598 62.3164C50.2101 61.8825 50.1519 61.4222 50.1889 60.9647C51.2811 61.1712 52.3899 61.2771 53.5014 61.2812ZM74.9217 75.9877C74.4927 72.2273 72.7907 68.7267 70.0982 66.0668C67.4057 63.407 63.8845 61.7479 60.1192 61.3649C60.1195 61.3363 60.1264 61.3098 60.1264 61.2812V60.0159C78.6157 52.522 73.7001 25.1967 53.5011 24.8437C33.2995 25.1982 28.3896 52.5256 46.8764 60.0159V61.2812C46.8764 61.3101 46.8833 61.3361 46.8837 61.3649C43.1183 61.7479 39.5972 63.407 36.9047 66.0669C34.2121 68.7267 32.5101 72.2274 32.0811 75.9877C11.3328 56.7806 24.928 21.604 53.5018 21.5314C82.0757 21.6041 95.6701 56.7859 74.9217 75.9877Z" fill="white"/>
<path d="M101.531 51.3438H96.5204C96.0913 40.5106 91.5955 30.2369 83.9293 22.5707C76.263 14.9045 65.9894 10.4087 55.1562 9.97945V4.96875C55.1562 4.52949 54.9818 4.10821 54.6711 3.7976C54.3605 3.487 53.9393 3.3125 53.5 3.3125C53.0607 3.3125 52.6395 3.487 52.3289 3.7976C52.0182 4.10821 51.8438 4.52949 51.8438 4.96875V9.97945C41.0106 10.4087 30.737 14.9045 23.0707 22.5707C15.4045 30.2369 10.9087 40.5106 10.4796 51.3438H5.46875C5.02949 51.3438 4.60821 51.5182 4.2976 51.8289C3.987 52.1395 3.8125 52.5607 3.8125 53C3.8125 53.4393 3.987 53.8605 4.2976 54.1711C4.60821 54.4818 5.02949 54.6562 5.46875 54.6562H10.4796C10.9087 65.4894 15.4045 75.7631 23.0707 83.4293C30.737 91.0955 41.0106 95.5913 51.8438 96.0205V101.031C51.8438 101.471 52.0182 101.892 52.3289 102.202C52.6395 102.513 53.0607 102.688 53.5 102.688C53.9393 102.688 54.3605 102.513 54.6711 102.202C54.9818 101.892 55.1562 101.471 55.1562 101.031V96.0205C65.9894 95.5913 76.263 91.0955 83.9293 83.4293C91.5955 75.7631 96.0913 65.4894 96.5204 54.6562H101.531C101.966 54.6501 102.382 54.4729 102.687 54.163C102.993 53.853 103.164 53.4353 103.164 53C103.164 52.5647 102.993 52.147 102.687 51.837C102.382 51.5271 101.966 51.3499 101.531 51.3438ZM55.1562 92.7079V91.0938C55.1562 90.6545 54.9818 90.2332 54.6711 89.9226C54.3605 89.612 53.9393 89.4375 53.5 89.4375C53.0607 89.4375 52.6395 89.612 52.3289 89.9226C52.0182 90.2332 51.8438 90.6545 51.8438 91.0938V92.7079C41.8889 92.281 32.4564 88.1349 25.4107 81.0893C18.3651 74.0436 14.219 64.6111 13.7921 54.6562H15.4062C15.8455 54.6562 16.2668 54.4818 16.5774 54.1711C16.888 53.8605 17.0625 53.4393 17.0625 53C17.0625 52.5607 16.888 52.1395 16.5774 51.8289C16.2668 51.5182 15.8455 51.3438 15.4062 51.3438H13.7921C14.219 41.3889 18.3651 31.9564 25.4107 24.9107C32.4564 17.8651 41.8889 13.719 51.8438 13.2921V14.9062C51.8438 15.3455 52.0182 15.7668 52.3289 16.0774C52.6395 16.388 53.0607 16.5625 53.5 16.5625C53.9393 16.5625 54.3605 16.388 54.6711 16.0774C54.9818 15.7668 55.1562 15.3455 55.1562 14.9062V13.2921C65.1111 13.719 74.5436 17.8651 81.5893 24.9107C88.6349 31.9564 92.781 41.3889 93.2079 51.3438H91.5938C91.1545 51.3438 90.7332 51.5182 90.4226 51.8289C90.112 52.1395 89.9375 52.5607 89.9375 53C89.9375 53.4393 90.112 53.8605 90.4226 54.1711C90.7332 54.4818 91.1545 54.6562 91.5938 54.6562H93.2079C92.781 64.6111 88.6349 74.0436 81.5893 81.0893C74.5436 88.1349 65.1111 92.281 55.1562 92.7079ZM84.9688 9.9375H91.5938C92.0329 9.93779 92.454 10.1124 92.7646 10.4229C93.0751 10.7335 93.2497 11.1546 93.25 11.5938V18.2188C93.2565 18.6538 93.4338 19.0688 93.7437 19.3741C94.0536 19.6795 94.4712 19.8506 94.9062 19.8506C95.3413 19.8506 95.7589 19.6795 96.0688 19.3741C96.3787 19.0688 96.556 18.6538 96.5625 18.2188V11.5938C96.5611 10.2764 96.0371 9.01341 95.1056 8.0819C94.1741 7.15039 92.9111 6.62644 91.5938 6.625H84.9688C84.5335 6.63116 84.1182 6.80836 83.8127 7.1183C83.5071 7.42824 83.3358 7.846 83.3358 8.28125C83.3358 8.7165 83.5071 9.13426 83.8127 9.4442C84.1182 9.75414 84.5335 9.93134 84.9688 9.9375ZM12.0938 19.875C12.3113 19.8751 12.5267 19.8324 12.7277 19.7492C12.9287 19.666 13.1114 19.544 13.2652 19.3902C13.419 19.2364 13.541 19.0537 13.6242 18.8527C13.7074 18.6517 13.7501 18.4363 13.75 18.2188V11.5938C13.7503 11.1546 13.9249 10.7335 14.2354 10.4229C14.546 10.1124 14.9671 9.93779 15.4062 9.9375H22.0312C22.4705 9.9375 22.8918 9.763 23.2024 9.4524C23.513 9.14179 23.6875 8.72051 23.6875 8.28125C23.6875 7.84199 23.513 7.42071 23.2024 7.1101C22.8918 6.7995 22.4705 6.625 22.0312 6.625H15.4062C14.0889 6.62644 12.8259 7.15039 11.8944 8.0819C10.9629 9.01341 10.4389 10.2764 10.4375 11.5938V18.2188C10.4374 18.4363 10.4801 18.6517 10.5633 18.8527C10.6465 19.0537 10.7685 19.2364 10.9223 19.3902C11.0761 19.544 11.2588 19.666 11.4598 19.7492C11.6608 19.8324 11.8762 19.8751 12.0938 19.875ZM94.9062 86.125C94.6887 86.1249 94.4733 86.1676 94.2723 86.2508C94.0713 86.334 93.8886 86.456 93.7348 86.6098C93.581 86.7636 93.459 86.9463 93.3758 87.1473C93.2926 87.3483 93.2499 87.5637 93.25 87.7812V94.4062C93.2497 94.8454 93.0751 95.2665 92.7646 95.5771C92.454 95.8876 92.0329 96.0622 91.5938 96.0625H84.9688C84.5295 96.0625 84.1082 96.237 83.7976 96.5476C83.487 96.8582 83.3125 97.2795 83.3125 97.7188C83.3125 98.158 83.487 98.5793 83.7976 98.8899C84.1082 99.2005 84.5295 99.375 84.9688 99.375H91.5938C92.9111 99.3736 94.1741 98.8496 95.1056 97.9181C96.0371 96.9866 96.5611 95.7236 96.5625 94.4062V87.7812C96.5626 87.5637 96.5199 87.3483 96.4367 87.1473C96.3535 86.9463 96.2315 86.7636 96.0777 86.6098C95.9239 86.456 95.7412 86.334 95.5402 86.2508C95.3392 86.1676 95.1238 86.1249 94.9062 86.125ZM22.0312 96.0625H15.4062C14.9671 96.0622 14.546 95.8876 14.2354 95.5771C13.9249 95.2665 13.7503 94.8454 13.75 94.4062V87.7812C13.7435 87.3462 13.5662 86.9312 13.2563 86.6259C12.9464 86.3205 12.5288 86.1494 12.0938 86.1494C11.6587 86.1494 11.2411 86.3205 10.9312 86.6259C10.6213 86.9312 10.444 87.3462 10.4375 87.7812V94.4062C10.4389 95.7236 10.9629 96.9866 11.8944 97.9181C12.8259 98.8496 14.0889 99.3736 15.4062 99.375H22.0312C22.4665 99.3688 22.8818 99.1916 23.1873 98.8817C23.4929 98.5718 23.6642 98.154 23.6642 97.7188C23.6642 97.2835 23.4929 96.8657 23.1873 96.5558C22.8818 96.2459 22.4665 96.0687 22.0312 96.0625Z" fill="white"/>
</svg>
