<svg width="73" height="72" viewBox="0 0 73 72" fill="none" xmlns="http://www.w3.org/2000/svg">
<circle cx="36.5" cy="36" r="36" fill="#343A3D"/>
<path d="M56.2273 39.1352C55.044 39.1352 54.0054 39.766 53.4306 40.709L51.9274 40.2209C52.3044 38.8456 52.4951 37.426 52.4944 36C52.4944 34.5394 52.2963 33.1242 51.9274 31.779L53.4305 31.2909C54.0053 32.2339 55.044 32.8649 56.2274 32.8649C58.0319 32.8649 59.5 31.3977 59.5 29.5942C59.5 27.7908 58.032 26.3237 56.2274 26.3237C54.4228 26.3237 52.9547 27.7908 52.9547 29.5942C52.9547 29.6853 52.9594 29.7752 52.9668 29.8644L51.4626 30.3529C50.44 27.6558 48.7074 25.3052 46.4936 23.5297L47.4271 22.2458C47.8276 22.4141 48.2578 22.5006 48.6923 22.5002C50.4968 22.5002 51.965 21.033 51.965 19.2295C51.965 17.4261 50.4969 15.959 48.6923 15.959C46.8877 15.959 45.4196 17.4261 45.4196 19.2295C45.4196 20.0439 45.7196 20.7891 46.2142 21.3622L45.2805 22.6465C42.954 21.1136 40.2059 20.1709 37.2505 20.0338V18.4534C38.6944 18.1133 39.7726 16.8159 39.7726 15.2707C39.7725 13.4672 38.3045 12 36.5 12C34.6955 12 33.2273 13.4671 33.2273 15.2706C33.2273 16.8158 34.3056 18.1133 35.7495 18.4533V20.0337C32.794 20.1709 30.0459 21.1136 27.7197 22.6464L26.786 21.3622C27.2805 20.7891 27.5805 20.0438 27.5805 19.2295C27.5805 17.4262 26.1124 15.959 24.3079 15.959C22.5034 15.959 21.0352 17.4261 21.0352 19.2295C21.0352 21.033 22.5033 22.5002 24.3078 22.5002C24.7561 22.5002 25.1835 22.4094 25.5729 22.2458L26.5064 23.5297C24.2926 25.3052 22.5601 27.6558 21.5374 30.3529L20.0332 29.8644C20.0406 29.7753 20.0453 29.6854 20.0453 29.5943C20.0453 27.791 18.5772 26.3238 16.7726 26.3238C14.9681 26.3238 13.5 27.7909 13.5 29.5943C13.5 31.3978 14.9681 32.8649 16.7726 32.8649C17.956 32.8649 18.9946 32.234 19.5694 31.2911L21.0725 31.7792C20.6956 33.1545 20.5049 34.5741 20.5056 36C20.5056 37.4606 20.7037 38.8758 21.0726 40.221L19.5695 40.7092C18.9947 39.7662 17.956 39.1353 16.7727 39.1353C14.9682 39.1353 13.5001 40.6025 13.5001 42.4059C13.5001 44.2094 14.9682 45.6765 16.7727 45.6765C18.5772 45.6765 20.0453 44.2094 20.0453 42.4059C20.0453 42.3149 20.0406 42.225 20.0332 42.1357L21.5375 41.6473C22.5601 44.3444 24.2926 46.695 26.5065 48.4704L25.573 49.7544C25.1726 49.5861 24.7424 49.4996 24.3079 49.5C22.5033 49.5 21.0352 50.9672 21.0352 52.7707C21.0352 54.5741 22.5033 56.0412 24.3079 56.0412C26.1124 56.0412 27.5805 54.5741 27.5805 52.7707C27.5805 51.9563 27.2805 51.2111 26.786 50.638L27.7198 49.3537C30.046 50.8865 32.7941 51.8292 35.7496 51.9664V53.5467C34.3057 53.8867 33.2275 55.1842 33.2275 56.7294C33.2274 58.5327 34.6954 60 36.5 60C38.3046 60 39.7727 58.5328 39.7727 56.7293C39.7727 55.1841 38.6944 53.8866 37.2505 53.5466V51.9663C40.206 51.8291 42.9541 50.8864 45.2804 49.3536L46.2141 50.6378C45.7196 51.2109 45.4195 51.9562 45.4195 52.7705C45.4195 54.5738 46.8876 56.0411 48.6922 56.0411C50.4968 56.0411 51.9648 54.5739 51.9648 52.7705C51.9648 50.967 50.4968 49.4999 48.6922 49.4999C48.2577 49.4995 47.8275 49.586 47.427 49.7543L46.4935 48.4702C48.7073 46.6948 50.4399 44.3442 51.4625 41.647L52.9668 42.1355C52.959 42.2254 52.955 42.3155 52.9547 42.4058C52.9547 44.2091 54.4227 45.6764 56.2273 45.6764C58.0319 45.6764 59.5 44.2092 59.5 42.4058C59.5 40.6023 58.0318 39.1352 56.2273 39.1352ZM56.2273 27.8237C57.2042 27.8237 57.999 28.6179 57.999 29.5942C57.999 30.5706 57.2042 31.3649 56.2273 31.3649C55.2504 31.3649 54.4555 30.5706 54.4555 29.5942C54.4555 28.6179 55.2504 27.8237 56.2273 27.8237ZM48.6921 17.459C49.669 17.459 50.4638 18.2532 50.4638 19.2295C50.4638 20.2058 49.669 21.0002 48.6921 21.0002C47.7151 21.0002 46.9204 20.2058 46.9204 19.2295C46.9204 18.2532 47.7151 17.459 48.6921 17.459ZM22.5362 19.2295C22.5362 18.2532 23.3309 17.459 24.3078 17.459C25.2848 17.459 26.0795 18.2532 26.0795 19.2295C26.0795 20.2058 25.2848 21.0002 24.3078 21.0002C23.3309 21.0002 22.5362 20.2058 22.5362 19.2295ZM16.7726 31.3648C15.7957 31.3648 15.0009 30.5706 15.0009 29.5942C15.0009 28.6179 15.7957 27.8237 16.7726 27.8237C17.7495 27.8237 18.5444 28.6179 18.5444 29.5942C18.5444 30.5706 17.7495 31.3648 16.7726 31.3648ZM16.7727 44.1763C15.7958 44.1763 15.001 43.3821 15.001 42.4058C15.001 41.4294 15.7958 40.6351 16.7727 40.6351C17.7496 40.6351 18.5444 41.4294 18.5444 42.4058C18.5444 43.3821 17.7496 44.1763 16.7727 44.1763ZM24.3078 54.541C23.3309 54.541 22.5361 53.7468 22.5361 52.7705C22.5361 51.7942 23.3309 50.9998 24.3078 50.9998C25.2848 50.9998 26.0795 51.7942 26.0795 52.7705C26.0795 53.7468 25.2848 54.541 24.3078 54.541ZM50.4638 52.7704C50.4638 53.7467 49.669 54.541 48.6921 54.541C47.7151 54.541 46.9203 53.7467 46.9203 52.7704C46.9203 51.7941 47.7151 50.9998 48.6921 50.9998C49.669 50.9998 50.4638 51.7941 50.4638 52.7704ZM34.7282 15.2706C34.7282 14.2943 35.5231 13.5 36.5 13.5C37.4769 13.5 38.2717 14.2943 38.2717 15.2706C38.2717 16.2469 37.4769 17.0411 36.5 17.0411C35.5231 17.0411 34.7282 16.2469 34.7282 15.2706ZM38.2717 56.7293C38.2717 57.7057 37.4768 58.5 36.4999 58.5C35.523 58.5 34.7282 57.7057 34.7282 56.7293C34.7282 55.753 35.523 54.9588 36.4999 54.9588C37.4768 54.9588 38.2717 55.753 38.2717 56.7293ZM36.5 50.4844C28.5083 50.4844 22.0065 43.9867 22.0065 36C22.0065 28.0133 28.5082 21.5156 36.5 21.5156C44.4918 21.5156 50.9935 28.0133 50.9935 36C50.9935 43.9867 44.4917 50.4844 36.5 50.4844ZM56.2273 44.1763C55.2504 44.1763 54.4556 43.382 54.4556 42.4057C54.4556 41.4293 55.2504 40.6351 56.2273 40.6351C57.2042 40.6351 57.9991 41.4293 57.9991 42.4057C57.9991 43.382 57.2042 44.1763 56.2273 44.1763ZM45.0041 29.6196H40.8399V28.9304C40.8399 27.7233 39.8572 26.7413 38.6494 26.7413H34.3505C33.1426 26.7413 32.1599 27.7233 32.1599 28.9304V29.6196H27.9957C27.2017 29.6196 26.5557 30.2652 26.5557 31.0587V34.337C26.5557 35.0407 26.8315 35.67 27.3751 36.2122V41.9257C27.3751 43.0807 28.3154 44.0205 29.4712 44.0205H43.5281C44.6839 44.0205 45.6243 43.0808 45.6243 41.9257V36.2123C46.1681 35.6698 46.4439 35.0406 46.4439 34.337V31.0587C46.4441 30.2652 45.7981 29.6196 45.0041 29.6196ZM32.4494 31.1196H40.5503V32.6102C40.5503 32.6708 40.4971 32.7242 40.4363 32.7242H32.5634C32.5027 32.7242 32.4493 32.6709 32.4493 32.6102L32.4494 31.1196ZM33.661 28.9304C33.661 28.5504 33.9703 28.2413 34.3506 28.2413H38.6495C39.0297 28.2413 39.339 28.5504 39.339 28.9304V29.6196H33.6611V28.9304H33.661ZM28.0568 31.1196H30.9486V32.6102C30.9486 33.5002 31.6731 34.2242 32.5635 34.2242H40.4364C41.3268 34.2242 42.0513 33.5002 42.0513 32.6102V31.1196H44.9432V34.3369C44.9432 34.5588 44.8866 34.9003 44.3983 35.3009C44.2886 35.3899 44.1735 35.472 44.0538 35.5469C43.1692 36.1063 41.1962 36.5228 38.7127 36.6827C38.3214 35.8531 37.4768 35.2774 36.4999 35.2774C35.5226 35.2774 34.6778 35.8537 34.2867 36.6839C31.8065 36.5252 29.8337 36.1082 28.946 35.547C28.8264 35.4721 28.7115 35.39 28.6019 35.301C28.1134 34.9002 28.0568 34.5588 28.0568 34.3369V31.1196ZM36.4999 36.7774C37.0205 36.7774 37.444 37.2007 37.444 37.7208C37.444 38.2409 37.0205 38.6642 36.4999 38.6642C35.9794 38.6642 35.5559 38.2409 35.5559 37.7208C35.5559 37.2007 35.9794 36.7774 36.4999 36.7774ZM43.5284 42.5204H29.4714C29.3136 42.5202 29.1623 42.4575 29.0507 42.346C28.9392 42.2344 28.8764 42.0833 28.8762 41.9256V37.1881C30.37 37.8135 32.5372 38.0699 34.0978 38.1746C34.3113 39.3057 35.3069 40.1643 36.4999 40.1643C37.6933 40.1643 38.6892 39.3052 38.9023 38.1734C40.464 38.068 42.6321 37.8113 44.1237 37.1877V41.9256C44.1235 42.0833 44.0607 42.2345 43.9491 42.346C43.8375 42.4575 43.6862 42.5202 43.5284 42.5204Z" fill="white"/>
</svg>
