<svg width="73" height="72" viewBox="0 0 73 72" fill="none" xmlns="http://www.w3.org/2000/svg">
<circle cx="36.5" cy="36" r="36" fill="#343A3D"/>
<path d="M36 48C32.7 48 30 45.3 30 42V38.25C30 37.8 30.3 37.5 30.75 37.5C31.2 37.5 31.5 37.8 31.5 38.25V42C31.5 44.55 33.45 46.5 36 46.5C38.55 46.5 40.5 44.55 40.5 42V38.25C40.5 37.8 40.8 37.5 41.25 37.5C41.7 37.5 42 37.8 42 38.25V42C42 45.3 39.3 48 36 48Z" fill="white"/>
<path d="M36 40.5C30.15 40.5 25.5 35.85 25.5 30V26.25C25.5 25.8 25.8 25.5 26.25 25.5C26.7 25.5 27 25.8 27 26.25V30C27 34.95 31.05 39 36 39C40.95 39 45 34.95 45 30V26.25C45 25.8 45.3 25.5 45.75 25.5C46.2 25.5 46.5 25.8 46.5 26.25V30C46.5 35.85 41.85 40.5 36 40.5ZM54.75 60H17.25C16.8 60 16.5 59.7 16.5 59.25V52.65C16.5 49.05 18.75 45.9 22.2 44.85L30.6 42H31.2C31.35 42.15 31.5 42.3 31.5 42.6C31.8 44.85 33.75 46.35 36 46.35C38.25 46.35 40.05 44.7 40.5 42.6C40.5 42.45 40.65 42.15 40.8 42C40.95 41.85 41.25 41.85 41.4 42L49.8 44.85C53.25 45.9 55.5 49.05 55.5 52.65V59.25C55.5 59.7 55.2 60 54.75 60ZM18 58.5H54V52.65C54 49.8 52.2 47.1 49.35 46.2L41.7 43.65C40.95 46.2 38.7 47.85 36 47.85C33.3 47.85 31.05 46.05 30.3 43.65L22.65 46.2C19.8 47.1 18 49.8 18 52.65V58.5Z" fill="white"/>
<path d="M54.75 60H45.75C45.3 60 45 59.7 45 59.25V57.75C45 52.8 48.75 48.6 53.55 48.15C53.85 48.15 54.15 48.3 54.3 48.45C55.05 49.8 55.5 51.15 55.5 52.65V59.25C55.5 59.7 55.2 60 54.75 60ZM46.5 58.5H54V52.65C54 51.6 53.7 50.55 53.25 49.65C49.35 50.4 46.5 53.7 46.5 57.75V58.5ZM26.25 60H17.25C16.8 60 16.5 59.7 16.5 59.25V52.65C16.5 51.15 16.95 49.65 17.7 48.45C17.85 48.15 18.15 48 18.45 48C23.4 48.6 27 52.8 27 57.6V59.1C27 59.7 26.7 60 26.25 60ZM18 58.5H25.5V57.75C25.5 53.7 22.65 50.4 18.75 49.65C18.3 50.55 18 51.6 18 52.65V58.5ZM45.75 27H45C43.8 27 42.75 25.95 42.75 24.75V21.75C42.75 21.3 42.45 21 42 21H30C29.55 21 29.25 21.3 29.25 21.75V24.75C29.25 25.95 28.2 27 27 27H26.25C25.8 27 25.5 26.7 25.5 26.25C25.5 25.8 25.8 25.5 26.25 25.5H27C27.45 25.5 27.75 25.2 27.75 24.75V21.75C27.75 20.55 28.8 19.5 30 19.5H42C43.2 19.5 44.25 20.55 44.25 21.75V24.75C44.25 25.2 44.55 25.5 45 25.5H45.75C46.2 25.5 46.5 25.8 46.5 26.25C46.5 26.7 46.2 27 45.75 27Z" fill="white"/>
<path d="M45.75 27H45.6C45.15 26.85 45 26.55 45 26.1L46.35 19.95C46.65 18.45 46.35 16.8 45.3 15.6C44.4 14.25 42.9 13.5 41.25 13.5H33.75C32.55 13.5 31.5 14.55 31.5 15.75C31.5 16.2 31.2 16.5 30.75 16.5C30.3 16.5 30 16.2 30 15.75C30 13.65 31.65 12 33.75 12H41.25C43.35 12 45.3 12.9 46.5 14.55C47.7 16.2 48.3 18.3 47.85 20.25L46.5 26.4C46.35 26.7 46.05 27 45.75 27Z" fill="white"/>
<path d="M26.9984 27H26.2484C25.9484 27 25.6484 26.7 25.4984 26.4L23.8484 20.1C23.3984 18.45 23.8484 16.95 24.7484 15.6C25.6484 14.25 27.4484 13.5 28.9484 13.5H29.2484C30.4484 13.5 31.4984 14.55 31.4984 15.75C31.4984 16.2 31.1984 16.5 30.7484 16.5C30.2984 16.5 29.9984 16.2 29.9984 15.75C29.9984 15.3 29.6984 15 29.2484 15H28.9484C27.7484 15 26.6984 15.6 25.9484 16.5C25.1984 17.4 25.0484 18.6 25.3484 19.65L26.8484 25.5H26.9984C27.4484 25.5 27.7484 25.8 27.7484 26.25C27.7484 26.7 27.4484 27 26.9984 27ZM48.7484 31.5H45.7484C45.2984 31.5 44.9984 31.2 44.9984 30.75V26.25C44.9984 25.8 45.2984 25.5 45.7484 25.5H47.2484C48.4484 25.5 49.4984 26.55 49.4984 27.75V30.75C49.4984 31.2 49.1984 31.5 48.7484 31.5ZM46.4984 30H47.9984V27.75C47.9984 27.3 47.6984 27 47.2484 27H46.4984V30Z" fill="white"/>
<path d="M44.25 36H39.75C39.3 36 39 35.7 39 35.25C39 34.8 39.3 34.5 39.75 34.5H44.25C46.35 34.5 48 32.85 48 30.75V27.75C48 27.3 48.3 27 48.75 27C49.2 27 49.5 27.3 49.5 27.75V30.75C49.5 33.6 47.1 36 44.25 36ZM26.25 31.5H24.75C23.55 31.5 22.5 30.45 22.5 29.25V27.75C22.5 26.55 23.55 25.5 24.75 25.5H26.25C26.7 25.5 27 25.8 27 26.25V30.75C27 31.2 26.7 31.5 26.25 31.5ZM24.75 27C24.3 27 24 27.3 24 27.75V29.25C24 29.7 24.3 30 24.75 30H25.5V27H24.75Z" fill="white"/>
<path d="M38.25 37.5H36.75C35.55 37.5 34.5 36.45 34.5 35.25C34.5 34.05 35.55 33 36.75 33H38.25C39.45 33 40.5 34.05 40.5 35.25C40.5 36.45 39.45 37.5 38.25 37.5ZM36.75 34.5C36.3 34.5 36 34.8 36 35.25C36 35.7 36.3 36 36.75 36H38.25C38.7 36 39 35.7 39 35.25C39 34.8 38.7 34.5 38.25 34.5H36.75Z" fill="white"/>
</svg>
