<svg width="41" height="27" viewBox="0 0 41 27" fill="none" xmlns="http://www.w3.org/2000/svg">
<path d="M2.25 4.5C3.49264 4.5 4.5 3.49264 4.5 2.25C4.5 1.00736 3.49264 0 2.25 0C1.00736 0 0 1.00736 0 2.25C0 3.49264 1.00736 4.5 2.25 4.5Z" fill="#1CCAFF"/>
<path d="M2.25 15.75C3.49264 15.75 4.5 14.7426 4.5 13.5C4.5 12.2574 3.49264 11.25 2.25 11.25C1.00736 11.25 0 12.2574 0 13.5C0 14.7426 1.00736 15.75 2.25 15.75Z" fill="#1CCAFF"/>
<path d="M2.25 27C3.49264 27 4.5 25.9926 4.5 24.75C4.5 23.5074 3.49264 22.5 2.25 22.5C1.00736 22.5 0 23.5074 0 24.75C0 25.9926 1.00736 27 2.25 27Z" fill="#1CCAFF"/>
<path d="M38.3889 11.25H11.1189C9.95082 11.25 9.00391 12.1969 9.00391 13.365V13.635C9.00391 14.8031 9.95082 15.75 11.1189 15.75H38.3889C39.557 15.75 40.5039 14.8031 40.5039 13.635V13.365C40.5039 12.1969 39.557 11.25 38.3889 11.25Z" fill="#1CCAFF"/>
<path d="M38.3889 22.5H11.1189C9.95082 22.5 9.00391 23.4469 9.00391 24.615V24.885C9.00391 26.0531 9.95082 27 11.1189 27H38.3889C39.557 27 40.5039 26.0531 40.5039 24.885V24.615C40.5039 23.4469 39.557 22.5 38.3889 22.5Z" fill="#1CCAFF"/>
<path d="M38.3889 0H11.1189C9.95082 0 9.00391 0.946918 9.00391 2.115V2.385C9.00391 3.55308 9.95082 4.5 11.1189 4.5H38.3889C39.557 4.5 40.5039 3.55308 40.5039 2.385V2.115C40.5039 0.946918 39.557 0 38.3889 0Z" fill="#1CCAFF"/>
</svg>
