<svg width="103" height="103" viewBox="0 0 103 103" fill="none" xmlns="http://www.w3.org/2000/svg">
<path d="M63.747 103H19.4248C19.2983 102.999 19.1737 102.968 19.0617 102.91C18.9497 102.851 18.8534 102.766 18.7811 102.662C18.7102 102.557 18.6645 102.437 18.6478 102.311C18.631 102.186 18.6436 102.058 18.6845 101.938C19.2156 100.441 20.1973 96.9165 20.5836 95.3715C22.1345 89.3172 22.3726 83.0012 21.2817 76.8473C20.1908 70.6934 17.7963 64.844 14.2588 59.6917C8.12704 50.2286 0.321567 31.6886 16.8981 13.9693C28.727 1.35185 44.3541 -0.531121 55.3783 0.112629C65.204 0.512818 74.5662 4.39806 81.7881 11.0725C84.9197 13.9845 87.4328 17.4974 89.1775 21.4016C90.9222 25.3058 91.8628 29.5213 91.9433 33.7968C91.9476 37.0682 91.2276 40.2999 89.835 43.26C89.3384 44.2172 89.0792 45.2797 89.0792 46.358C89.0792 47.4364 89.3384 48.4989 89.835 49.4561C90.2213 50.1642 90.7041 51.0654 91.203 51.854C94.293 57.165 96.5944 61.3976 95.9024 63.5864C95.8252 63.853 95.692 64.1001 95.5116 64.3111C95.3312 64.522 95.1077 64.692 94.8563 64.8095C93.4349 65.4281 91.9511 65.8921 90.4305 66.1936C90.3365 67.9974 90.3903 69.806 90.5914 71.6011C90.6454 72.0105 90.5904 72.4269 90.4322 72.8083C90.274 73.1897 90.0181 73.5227 89.6902 73.7737L88.2417 74.7393L88.7889 75.9786C88.9855 76.497 88.9855 77.0695 88.7889 77.5879C88.2614 78.8389 87.4386 79.9433 86.3909 80.8067C86.0235 81.6072 85.983 82.5196 86.2783 83.3495C86.9513 85.3509 86.8303 87.5343 85.9403 89.449C85.5819 90.0371 85.1048 90.5441 84.5395 90.9376C83.9743 91.3311 83.3332 91.6024 82.6572 91.7343C80.1025 92.1602 77.4982 92.1982 74.9322 91.847L73.3228 91.7343C72.1561 91.6275 70.9803 91.7847 69.8826 92.1942C68.7849 92.6038 67.7935 93.2552 66.9819 94.1001C66.0201 95.1304 65.2956 96.3587 64.8591 97.6988C64.4226 99.0389 64.2847 100.458 64.4552 101.857C64.4883 102.033 64.4883 102.213 64.4552 102.388C64.4179 102.553 64.329 102.701 64.2016 102.811C64.0742 102.921 63.9149 102.987 63.747 103ZM20.5192 101.391H62.9263C62.824 99.8547 63.0431 98.3143 63.5696 96.8678C64.0961 95.4213 64.9184 94.1005 65.9841 92.9897C66.9591 91.9979 68.1369 91.2285 69.4369 90.7341C70.7368 90.2397 72.1283 90.0319 73.5159 90.125L75.1253 90.2537C77.5221 90.5628 79.9511 90.5194 82.3353 90.125C82.8101 90.0489 83.2634 89.8734 83.6655 89.6099C84.0677 89.3465 84.4096 89.0009 84.6689 88.5961C85.3462 87.0701 85.4153 85.3431 84.862 83.7679C84.651 83.1256 84.5806 82.4453 84.6556 81.7733C84.7305 81.1013 84.9491 80.4533 85.2966 79.8733C85.3265 79.8148 85.3708 79.765 85.4253 79.7284C86.3025 79.039 87.0031 78.1509 87.4692 77.1373C87.5328 76.9771 87.5328 76.7986 87.4692 76.6384L86.6484 74.7876C86.5721 74.6163 86.5593 74.4233 86.6124 74.2434C86.6655 74.0635 86.781 73.9083 86.9381 73.8059L88.9016 72.5023C88.995 72.4119 89.0657 72.3005 89.1076 72.1774C89.1496 72.0542 89.1617 71.9229 89.143 71.7942C88.9059 69.6942 88.8681 67.5765 89.0303 65.4693C89.0432 65.2938 89.1156 65.1279 89.2356 64.9991C89.3556 64.8704 89.516 64.7864 89.6902 64.7612C91.2753 64.4758 92.8242 64.0171 94.3091 63.3933C94.3623 63.3707 94.4092 63.3354 94.4457 63.2905C94.4822 63.2456 94.5071 63.1925 94.5183 63.1358C95.0494 61.4298 91.8628 55.9418 89.9638 52.6748C89.4488 51.7897 88.9659 50.9528 88.5636 50.2286C87.9632 49.0525 87.6501 47.7509 87.6501 46.4304C87.6501 45.11 87.9632 43.8084 88.5636 42.6323C89.8046 39.8553 90.4146 36.8378 90.35 33.7968C90.2778 29.7298 89.3853 25.7191 87.726 22.0052C86.0668 18.2912 83.6749 14.9504 80.6938 12.1829C73.7354 5.78249 64.7287 2.06345 55.2817 1.68982C44.5955 1.06216 29.5317 2.88075 18.0569 15.0637C2.22063 31.9943 9.65594 49.7458 15.5784 58.8387C19.2432 64.1679 21.724 70.2203 22.8538 76.5885C23.9836 82.9568 23.7364 89.4931 22.1286 95.7578C21.7906 97.0614 21.0825 99.6525 20.5192 101.391Z" fill="white"/>
<path d="M64.8559 63.6508C63.5113 63.6539 62.196 63.2579 61.0767 62.5129C59.9574 61.7678 59.0844 60.7073 58.5684 59.4657C58.0523 58.224 57.9165 56.8571 58.178 55.5382C58.4396 54.2193 59.0867 53.0076 60.0375 52.0569C60.9883 51.1061 62.1999 50.4589 63.5188 50.1974C64.8378 49.9358 66.2047 50.0717 67.4463 50.5877C68.688 51.1037 69.7485 51.9767 70.4935 53.0961C71.2386 54.2154 71.6346 55.5307 71.6314 56.8753C71.6229 58.6697 70.9064 60.3881 69.6376 61.6569C68.3688 62.9257 66.6503 63.6423 64.8559 63.6508ZM64.8559 51.677C63.8278 51.677 62.8228 51.9819 61.9679 52.5531C61.1131 53.1243 60.4468 53.9361 60.0534 54.886C59.6599 55.8359 59.557 56.8811 59.7575 57.8894C59.9581 58.8978 60.4532 59.824 61.1802 60.551C61.9072 61.278 62.8334 61.7731 63.8418 61.9737C64.8502 62.1743 65.8954 62.0713 66.8452 61.6779C67.7951 61.2844 68.607 60.6182 69.1782 59.7633C69.7493 58.9084 70.0542 57.9034 70.0542 56.8753C70.0542 55.4966 69.5065 54.1744 68.5317 53.1996C67.5568 52.2247 66.2346 51.677 64.8559 51.677ZM64.8559 32.1875C63.512 32.1907 62.1974 31.7951 61.0784 31.0507C59.9594 30.3064 59.0864 29.2468 58.5699 28.0061C58.0534 26.7654 57.9166 25.3993 58.1768 24.0808C58.4371 22.7623 59.0826 21.5507 60.0318 20.5993C60.981 19.6478 62.1911 18.9994 63.509 18.7361C64.8268 18.4727 66.1932 18.6062 67.4351 19.1198C68.6771 19.6334 69.7387 20.5038 70.4857 21.6211C71.2327 22.7383 71.6314 24.052 71.6314 25.3959C71.6272 27.1931 70.9125 28.9156 69.6432 30.1879C68.3739 31.4602 66.6531 32.179 64.8559 32.1875ZM64.8559 20.1976C63.8278 20.1976 62.8228 20.5025 61.9679 21.0737C61.1131 21.6449 60.4468 22.4568 60.0534 23.4066C59.6599 24.3565 59.557 25.4017 59.7575 26.4101C59.9581 27.4184 60.4532 28.3447 61.1802 29.0717C61.9072 29.7987 62.8334 30.2937 63.8418 30.4943C64.8502 30.6949 65.8954 30.5919 66.8452 30.1985C67.7951 29.8051 68.607 29.1388 69.1782 28.2839C69.7493 27.4291 70.0542 26.424 70.0542 25.3959C70.0627 24.7079 69.9346 24.025 69.6772 23.3868C69.4197 22.7487 69.0382 22.168 68.5546 21.6785C68.0711 21.1889 67.4951 20.8003 66.8602 20.535C66.2253 20.2698 65.544 20.1332 64.8559 20.1333V20.1976ZM36.4183 49.279C34.8006 49.2822 33.2184 48.8054 31.8718 47.909C30.5252 47.0126 29.4748 45.7369 28.8535 44.2433C28.2323 42.7496 28.0681 41.1053 28.3817 39.5183C28.6953 37.9313 29.4727 36.4731 30.6155 35.3281C31.7582 34.1831 33.2149 33.4028 34.8013 33.0861C36.3876 32.7693 38.0323 32.9303 39.5271 33.5486C41.022 34.1669 42.2998 35.2148 43.1989 36.5596C44.0979 37.9044 44.5778 39.4857 44.5778 41.1034C44.5736 43.2676 43.7131 45.3423 42.1842 46.8741C40.6554 48.4059 38.5825 49.2705 36.4183 49.279ZM36.4183 34.5211C35.1164 34.5211 33.8438 34.9071 32.7613 35.6304C31.6789 36.3537 30.8352 37.3817 30.337 38.5845C29.8388 39.7872 29.7084 41.1107 29.9624 42.3876C30.2164 43.6644 30.8433 44.8373 31.7639 45.7578C32.6844 46.6784 33.8573 47.3053 35.1341 47.5593C36.411 47.8133 37.7345 47.6829 38.9372 47.1847C40.14 46.6865 41.168 45.8428 41.8913 44.7604C42.6146 43.6779 43.0006 42.4053 43.0006 41.1034C43.0006 40.239 42.8304 39.3831 42.4996 38.5845C42.1688 37.7859 41.6839 37.0602 41.0727 36.449C40.4615 35.8378 39.7358 35.3529 38.9372 35.0221C38.1386 34.6913 37.2827 34.5211 36.4183 34.5211Z" fill="white"/>
<path d="M58.8882 57.9375C58.7606 57.9359 58.6347 57.9085 58.518 57.8571L39.8814 48.2008C39.6958 48.1047 39.556 47.9388 39.4926 47.7397C39.4293 47.5405 39.4475 47.3243 39.5435 47.1386C39.5894 47.0452 39.6537 46.962 39.7326 46.8941C39.8115 46.8261 39.9033 46.7748 40.0025 46.7433C40.1017 46.7117 40.2063 46.7005 40.3099 46.7104C40.4136 46.7202 40.5142 46.751 40.6057 46.8007L59.2422 56.4569C59.4289 56.5562 59.5691 56.725 59.6323 56.9268C59.6956 57.1285 59.6768 57.3471 59.5802 57.5352C59.5112 57.6579 59.4107 57.76 59.289 57.8307C59.1673 57.9015 59.0289 57.9384 58.8882 57.9375ZM61.5919 52.6588C61.4697 52.6831 61.3439 52.6831 61.2217 52.6588L43.2933 43.26C43.1055 43.164 42.9635 42.9973 42.8986 42.7966C42.8338 42.5959 42.8513 42.3776 42.9473 42.1898C43.0433 42.002 43.21 41.86 43.4107 41.7952C43.6115 41.7303 43.8297 41.7478 44.0175 41.8438L61.9621 51.1621C62.1458 51.2643 62.2833 51.4332 62.3461 51.6338C62.409 51.8344 62.3925 52.0515 62.3 52.2404C62.2319 52.3685 62.1298 52.4754 62.0048 52.5492C61.8799 52.623 61.737 52.661 61.5919 52.6588ZM40.2355 35.6155C40.0891 35.6144 39.9458 35.5733 39.821 35.4967C39.6962 35.4201 39.5947 35.311 39.5274 35.181C39.4777 35.0895 39.4469 34.9889 39.4371 34.8853C39.4272 34.7816 39.4384 34.6771 39.47 34.5779C39.5015 34.4786 39.5528 34.3868 39.6208 34.308C39.6887 34.2291 39.7719 34.1647 39.8653 34.1188L58.5019 24.4626C58.5934 24.4128 58.694 24.3821 58.7976 24.3723C58.9012 24.3624 59.0058 24.3736 59.105 24.4051C59.2042 24.4367 59.296 24.488 59.3749 24.5559C59.4538 24.6239 59.5182 24.7071 59.5641 24.8005C59.6607 24.9886 59.6795 25.2072 59.6162 25.409C59.553 25.6107 59.4128 25.7795 59.2261 25.8788L40.5896 35.535C40.48 35.5908 40.3584 35.6185 40.2355 35.6155ZM43.6474 40.4597C43.4686 40.4613 43.2946 40.4021 43.1538 40.2918C43.0131 40.1816 42.914 40.0267 42.8729 39.8527C42.8317 39.6787 42.8509 39.4959 42.9273 39.3342C43.0037 39.1726 43.1327 39.0417 43.2933 38.963L61.1574 29.6286C61.2512 29.5644 61.3576 29.5208 61.4695 29.5007C61.5814 29.4806 61.6963 29.4844 61.8066 29.5119C61.917 29.5394 62.0202 29.59 62.1096 29.6603C62.1989 29.7307 62.2724 29.8191 62.325 29.9199C62.3777 30.0207 62.4084 30.1315 62.4152 30.245C62.4219 30.3585 62.4045 30.4721 62.3641 30.5784C62.3238 30.6847 62.2613 30.7812 62.1809 30.8617C62.1005 30.9421 62.004 31.0045 61.8977 31.0449L44.0175 40.3632C43.9047 40.4272 43.7771 40.4605 43.6474 40.4597Z" fill="white"/>
</svg>
