<svg width="114" height="114" viewBox="0 0 114 114" fill="none" xmlns="http://www.w3.org/2000/svg">
<path d="M56.9989 0.11377C25.6311 0.11377 0.113281 25.6324 0.113281 56.9989C0.113281 88.3665 25.6311 113.886 56.9989 113.886C88.3647 113.886 113.884 88.3665 113.884 56.9989C113.884 25.6324 88.3647 0.11377 56.9989 0.11377ZM73.0764 36.0242C73.0764 36.2936 72.9693 36.5519 72.7789 36.7424C72.5884 36.9329 72.3301 37.0399 72.0607 37.0399L65.5942 37.0439C61.3275 37.0439 60.5475 38.7055 60.5475 41.9778V48.7663H71.6382C71.9297 48.7663 72.208 48.8922 72.3999 49.1116C72.5919 49.331 72.6813 49.6224 72.6457 49.9119L71.0664 62.1329C71.0348 62.3778 70.9151 62.6027 70.7297 62.7657C70.5442 62.9287 70.3058 63.0186 70.0589 63.0185H60.5475V93.3644C60.5475 93.6338 60.4405 93.8921 60.25 94.0826C60.0596 94.273 59.8012 94.38 59.5319 94.38H46.9136C46.6443 94.38 46.386 94.273 46.1955 94.0826C46.005 93.8921 45.898 93.6338 45.898 93.3644V63.0185H36.3561C36.0868 63.0185 35.8284 62.9115 35.638 62.7211C35.4475 62.5306 35.3405 62.2723 35.3405 62.0029V49.7819C35.3405 49.5125 35.4475 49.2542 35.638 49.0637C35.8284 48.8733 36.0868 48.7663 36.3561 48.7663H45.898V40.7682C45.898 30.1753 52.3087 23.596 62.6306 23.596C67.0679 23.596 70.9892 23.9261 72.1938 24.0856C72.4379 24.1178 72.662 24.2377 72.8243 24.4228C72.9867 24.608 73.0763 24.8458 73.0764 25.0921V36.0242Z" fill="url(#paint0_linear_1037_38)"/>
<defs>
<linearGradient id="paint0_linear_1037_38" x1="56.9989" y1="0.11377" x2="56.9989" y2="113.886" gradientUnits="userSpaceOnUse">
<stop stop-color="#1D1D1D"/>
<stop offset="1" stop-color="#005274"/>
</linearGradient>
</defs>
</svg>
