<svg width="73" height="72" viewBox="0 0 73 72" fill="none" xmlns="http://www.w3.org/2000/svg">
<circle cx="36.5" cy="36" r="36" fill="#343A3D"/>
<path d="M37.5 25.2272H36C35.6022 25.2272 35.2206 25.0723 34.9393 24.7967C34.658 24.5211 34.5 24.1473 34.5 23.7575C34.5 23.5626 34.421 23.3757 34.2803 23.2379C34.1397 23.1001 33.9489 23.0226 33.75 23.0226C33.5511 23.0226 33.3603 23.1001 33.2197 23.2379C33.079 23.3757 33 23.5626 33 23.7575C33 24.537 33.3161 25.2847 33.8787 25.8359C34.4413 26.3872 35.2044 26.6968 36 26.6968V27.4317C36 27.6266 36.079 27.8135 36.2197 27.9513C36.3603 28.0891 36.5511 28.1665 36.75 28.1665C36.9489 28.1665 37.1397 28.0891 37.2803 27.9513C37.421 27.8135 37.5 27.6266 37.5 27.4317V26.6968C38.2956 26.6968 39.0587 26.3872 39.6213 25.8359C40.1839 25.2847 40.5 24.537 40.5 23.7575C40.5 22.9779 40.1839 22.2303 39.6213 21.679C39.0587 21.1278 38.2956 20.8181 37.5 20.8181H36C35.6022 20.8181 35.2206 20.6633 34.9393 20.3876C34.658 20.112 34.5 19.7382 34.5 19.3484C34.5 18.9586 34.658 18.5848 34.9393 18.3092C35.2206 18.0336 35.6022 17.8787 36 17.8787H37.5C37.8978 17.8787 38.2794 18.0336 38.5607 18.3092C38.842 18.5848 39 18.9586 39 19.3484C39 19.5433 39.079 19.7302 39.2197 19.868C39.3603 20.0058 39.5511 20.0833 39.75 20.0833C39.9489 20.0833 40.1397 20.0058 40.2803 19.868C40.421 19.7302 40.5 19.5433 40.5 19.3484C40.5 18.5689 40.1839 17.8212 39.6213 17.27C39.0587 16.7187 38.2956 16.4091 37.5 16.4091V15.6742C37.5 15.4793 37.421 15.2924 37.2803 15.1546C37.1397 15.0168 36.9489 14.9394 36.75 14.9394C36.5511 14.9394 36.3603 15.0168 36.2197 15.1546C36.079 15.2924 36 15.4793 36 15.6742V16.4091C35.2044 16.4091 34.4413 16.7187 33.8787 17.27C33.3161 17.8212 33 18.5689 33 19.3484C33 20.128 33.3161 20.8756 33.8787 21.4269C34.4413 21.9781 35.2044 22.2878 36 22.2878H37.5C37.8978 22.2878 38.2794 22.4426 38.5607 22.7182C38.842 22.9939 39 23.3677 39 23.7575C39 24.1473 38.842 24.5211 38.5607 24.7967C38.2794 25.0723 37.8978 25.2272 37.5 25.2272ZM36.75 31.1059C38.6784 31.1059 40.5634 30.5456 42.1668 29.4959C43.7702 28.4462 45.0199 26.9543 45.7578 25.2087C46.4958 23.4631 46.6889 21.5423 46.3127 19.6893C45.9365 17.8362 45.0079 16.134 43.6443 14.798C42.2807 13.462 40.5434 12.5522 38.6521 12.1836C36.7608 11.815 34.8004 12.0041 33.0188 12.7272C31.2373 13.4502 29.7145 14.6746 28.6432 16.2456C27.5718 17.8166 27 19.6636 27 21.5529C27.0032 24.0856 28.0314 26.5136 29.8592 28.3045C31.687 30.0953 34.1651 31.1028 36.75 31.1059ZM36.75 13.4697C38.3817 13.4697 39.9767 13.9438 41.3335 14.832C42.6902 15.7202 43.7476 16.9826 44.372 18.4596C44.9964 19.9366 45.1598 21.5619 44.8415 23.1299C44.5232 24.6979 43.7374 26.1382 42.5836 27.2687C41.4298 28.3991 39.9598 29.169 38.3595 29.4809C36.7592 29.7928 35.1004 29.6327 33.5929 29.0209C32.0854 28.4091 30.7969 27.373 29.8904 26.0438C28.9839 24.7145 28.5 23.1517 28.5 21.5529C28.5024 19.4098 29.3723 17.3552 30.919 15.8398C32.4657 14.3244 34.5627 13.472 36.75 13.4697ZM59.25 33.7513H53.25C52.7425 33.7524 52.2502 33.9215 51.8532 34.2313C51.4562 34.541 51.1777 34.9732 51.063 35.4576L42.6285 32.9209C41.5412 32.5961 40.3759 32.6239 39.306 33.0003L38.0505 33.4412L32.166 32.1758C30.923 31.908 29.6281 31.9905 28.431 32.4139L20.8245 35.1005C20.6526 34.7005 20.3641 34.3591 19.9951 34.1191C19.6261 33.8791 19.1929 33.7512 18.75 33.7513H12.75C12.5511 33.7513 12.3603 33.8287 12.2197 33.9665C12.079 34.1044 12 34.2913 12 34.4862V49.183C12 49.3779 12.079 49.5648 12.2197 49.7026C12.3603 49.8404 12.5511 49.9178 12.75 49.9178H18.75C19.1203 49.9174 19.4847 49.8274 19.811 49.6559C20.1373 49.4844 20.4154 49.2367 20.6205 48.9346C23.3949 52.3812 26.9196 55.1774 30.9375 57.1193L34.1745 58.6801C34.6663 58.9195 35.2138 59.0278 35.7619 58.9939C36.31 58.9601 36.8394 58.7854 37.2966 58.4874C37.7539 58.1894 38.123 57.7787 38.3667 57.2965C38.6104 56.8143 38.7202 56.2777 38.685 55.7407C38.8882 55.7921 39.0963 55.8222 39.306 55.8304C39.5116 55.8301 39.7166 55.8094 39.918 55.7686C40.5747 55.6379 41.1672 55.2939 41.5995 54.7921C42.0318 54.2904 42.2786 53.6604 42.3 53.0042C42.7265 53.2392 43.2058 53.367 43.695 53.376C43.9001 53.3757 44.1047 53.355 44.3055 53.3143C45.0047 53.1752 45.6298 52.7949 46.0672 52.2426C46.5045 51.6902 46.7252 51.0025 46.689 50.3044C47.2697 50.446 47.8814 50.4018 48.4345 50.178C48.9876 49.9542 49.453 49.5628 49.7625 49.061C49.9878 48.7276 50.141 48.3524 50.2125 47.9587H51.0255C51.0869 48.4956 51.3473 48.9917 51.7574 49.3529C52.1675 49.714 52.6986 49.9151 53.25 49.9178H59.25C59.4489 49.9178 59.6397 49.8404 59.7803 49.7026C59.921 49.5648 60 49.3779 60 49.183V34.4862C60 34.2913 59.921 34.1044 59.7803 33.9665C59.6397 33.8287 59.4489 33.7513 59.25 33.7513ZM19.5 47.7133C19.5 47.9082 19.421 48.0951 19.2803 48.2329C19.1397 48.3707 18.9489 48.4482 18.75 48.4482H13.5V35.221H18.75C18.9489 35.221 19.1397 35.2984 19.2803 35.4362C19.421 35.574 19.5 35.761 19.5 35.9558V47.7133ZM48.5115 48.2586C48.4033 48.4198 48.2637 48.5586 48.1007 48.667C47.9377 48.7754 47.7545 48.8513 47.5616 48.8903C47.3687 48.9293 47.1698 48.9308 46.9763 48.8945C46.7829 48.8582 46.5986 48.785 46.434 48.6789L39.4695 44.1861L39.1485 44.6637C39.0993 44.6961 39.0572 44.7378 39.0245 44.7862C38.9918 44.8346 38.9692 44.8889 38.958 44.9459L38.6445 45.4133L39.219 45.7836C39.2265 45.7836 39.231 45.7968 39.2385 45.8027L44.526 49.2153C44.851 49.4327 45.0758 49.7666 45.1519 50.1448C45.228 50.5231 45.1494 50.9156 44.9329 51.2375C44.7164 51.5595 44.3795 51.7853 43.9947 51.8661C43.61 51.947 43.2082 51.8764 42.876 51.6697L40.983 50.4484L40.962 50.4322L36.36 47.4635H36.348L35.9115 47.1813C35.7454 47.0779 35.5445 47.0427 35.3521 47.0831C35.1597 47.1235 34.9913 47.2364 34.8831 47.3974C34.7748 47.5584 34.7355 47.7546 34.7736 47.9437C34.8116 48.1329 34.924 48.2998 35.0865 48.4085L40.146 51.6726C40.3895 51.8344 40.5791 52.0628 40.6912 52.3294C40.8032 52.5959 40.8328 52.8889 40.7762 53.1718C40.7196 53.4547 40.5794 53.715 40.3729 53.9204C40.1664 54.1258 39.9028 54.2672 39.615 54.3269C39.2255 54.4049 38.8203 54.3283 38.4885 54.1138L33.4095 50.8364C33.3273 50.7814 33.2347 50.743 33.1372 50.7234C33.0397 50.7038 32.9392 50.7035 32.8415 50.7223C32.7439 50.7412 32.651 50.7789 32.5684 50.8333C32.4858 50.8877 32.415 50.9576 32.3603 51.0391C32.3055 51.1205 32.2679 51.2118 32.2495 51.3077C32.2311 51.4035 32.2324 51.502 32.2533 51.5974C32.2742 51.6927 32.3142 51.783 32.3711 51.8631C32.4279 51.9431 32.5005 52.0113 32.5845 52.0636L32.8485 52.2341C32.856 52.2341 32.8605 52.2488 32.8695 52.2546L36.4695 54.5753C36.8374 54.7915 37.1042 55.1403 37.2129 55.5469C37.3215 55.9536 37.2633 56.3857 37.0507 56.7508C36.8381 57.1159 36.488 57.3849 36.0755 57.5002C35.6629 57.6155 35.2207 57.5679 34.8435 57.3677L31.599 55.7966C27.3793 53.7565 23.7386 50.7276 21 46.9785V36.5996L28.938 33.7983C29.8694 33.4701 30.8765 33.4059 31.8435 33.6132L35.403 34.3789L32.829 35.2886C32.0383 35.5539 31.3876 36.116 31.0199 36.8513C30.6522 37.5867 30.5978 38.435 30.8685 39.2097C31.1392 39.9844 31.7129 40.622 32.4635 40.9823C33.214 41.3425 34.0798 41.3958 34.8705 41.1306L38.436 39.9975L48.084 46.2216C48.2625 46.337 48.4138 46.4886 48.5276 46.666C48.6414 46.8434 48.7152 47.0427 48.744 47.2504C48.7453 47.2863 48.7488 47.3221 48.7545 47.3577C48.7757 47.6754 48.6904 47.9927 48.5115 48.2586ZM51 46.4935H50.1C49.8859 45.8778 49.4677 45.3501 48.912 44.9944L38.964 38.5748C38.8701 38.5143 38.7635 38.4752 38.6522 38.4604C38.5408 38.4457 38.4274 38.4556 38.3205 38.4896L34.4115 39.7329C34.108 39.8297 33.7824 39.8382 33.4741 39.7573C33.1658 39.6765 32.888 39.5097 32.6745 39.2773C32.4927 39.0804 32.3633 38.8426 32.2976 38.585C32.2319 38.3274 32.2319 38.0579 32.2978 37.8003C32.3636 37.5427 32.4932 37.305 32.675 37.1082C32.8569 36.9113 33.0855 36.7614 33.3405 36.6716L39.819 34.3818C40.5831 34.1128 41.4156 34.0932 42.192 34.326L51 36.9773V46.4935ZM58.5 48.4482H53.25C53.0511 48.4482 52.8603 48.3707 52.7197 48.2329C52.579 48.0951 52.5 47.9082 52.5 47.7133V35.9558C52.5 35.761 52.579 35.574 52.7197 35.4362C52.8603 35.2984 53.0511 35.221 53.25 35.221H58.5V48.4482Z" fill="white"/>
</svg>
