<svg width="94" height="94" viewBox="0 0 94 94" fill="none" xmlns="http://www.w3.org/2000/svg">
<g clip-path="url(#clip0_1031_29)">
<path d="M52.4487 41.0931H52.5199V40.9812L52.4487 41.0931ZM52.4487 41.0931H52.5199V40.9812L52.4487 41.0931ZM52.4487 41.0931H52.5199V40.9812L52.4487 41.0931ZM52.4487 41.0931H52.5199V40.9812L52.4487 41.0931ZM52.4487 41.0931H52.5199V40.9812L52.4487 41.0931ZM52.4487 41.0931H52.5199V40.9812L52.4487 41.0931ZM52.4487 41.0931H52.5199V40.9812L52.4487 41.0931ZM52.4487 41.0931H52.5199V40.9812L52.4487 41.0931ZM52.4487 41.0931H52.5199V40.9812L52.4487 41.0931ZM52.4487 41.0931H52.5199V40.9812L52.4487 41.0931ZM52.4487 41.0931H52.5199V40.9812L52.4487 41.0931ZM52.4487 41.0931H52.5199V40.9812L52.4487 41.0931ZM52.4487 41.0931H52.5199V40.9812L52.4487 41.0931ZM52.4487 41.0931H52.5199V40.9812L52.4487 41.0931ZM52.4487 41.0931H52.5199V40.9812L52.4487 41.0931ZM52.4487 41.0931H52.5199V40.9812L52.4487 41.0931ZM47.8207 0C38.6331 0 29.6517 2.72445 22.0125 7.82882C14.3733 12.9332 8.41922 20.1882 4.90327 28.6765C1.38731 37.1648 0.467381 46.505 2.2598 55.5161C4.05222 64.5272 8.47648 72.8044 14.9731 79.301C21.4698 85.7977 29.747 90.2219 38.7581 92.0144C47.7692 93.8068 57.1094 92.8868 65.5977 89.3709C74.0859 85.8549 81.341 79.9009 86.4453 72.2616C91.5497 64.6224 94.2742 55.6411 94.2742 46.4535C94.2607 34.1374 89.3622 22.3296 80.6534 13.6208C71.9446 4.91198 60.1368 0.0134617 47.8207 0ZM36.2048 67.3662C36.2021 67.5721 36.1184 67.7687 35.9718 67.9134C35.8252 68.0581 35.6275 68.1392 35.4216 68.1392H26.4706C26.2656 68.1392 26.0689 68.0578 25.924 67.9128C25.779 67.7678 25.6976 67.5712 25.6976 67.3662V37.2889C25.6962 37.1865 25.7152 37.0849 25.7535 36.99C25.7917 36.895 25.8484 36.8086 25.9203 36.7357C25.9923 36.6628 26.0779 36.605 26.1724 36.5655C26.2669 36.526 26.3682 36.5057 26.4706 36.5057H35.4216C35.5244 36.5057 35.6263 36.526 35.7213 36.5653C35.8163 36.6047 35.9026 36.6624 35.9754 36.7351C36.0481 36.8078 36.1058 36.8942 36.1452 36.9892C36.1845 37.0842 36.2048 37.1861 36.2048 37.2889V67.3662ZM30.6308 32.4879C29.5183 32.4879 28.4308 32.158 27.5058 31.54C26.5807 30.9219 25.8598 30.0434 25.4341 29.0156C25.0083 27.9878 24.8969 26.8568 25.114 25.7657C25.331 24.6746 25.8667 23.6723 26.6534 22.8857C27.44 22.099 28.4423 21.5633 29.5334 21.3463C30.6245 21.1292 31.7555 21.2406 32.7833 21.6664C33.8111 22.0921 34.6896 22.8131 35.3077 23.7381C35.9257 24.6631 36.2556 25.7506 36.2556 26.8631C36.257 27.6021 36.1124 28.3342 35.8302 29.0172C35.548 29.7002 35.1337 30.3209 34.6111 30.8434C34.0886 31.366 33.4679 31.7803 32.7849 32.0625C32.1018 32.3447 31.3698 32.4893 30.6308 32.4879ZM74.0836 67.3662C74.081 67.5721 73.9973 67.7687 73.8507 67.9134C73.7041 68.0581 73.5064 68.1392 73.3004 68.1392H64.3495C64.2479 68.1392 64.1474 68.1192 64.0536 68.0804C63.9598 68.0415 63.8746 67.9846 63.8028 67.9128C63.7311 67.841 63.6741 67.7558 63.6353 67.662C63.5964 67.5682 63.5764 67.4677 63.5764 67.3662V51.2036C63.5764 46.9519 62.0609 44.0835 58.2567 44.0835C57.0713 44.0901 55.917 44.4632 54.9518 45.1515C53.9867 45.8398 53.2581 46.8097 52.8658 47.9284C52.5976 48.7551 52.4805 49.6233 52.5199 50.4916V67.3662C52.5199 67.5739 52.4374 67.7731 52.2905 67.92C52.1437 68.0669 51.9445 68.1494 51.7367 68.1494H42.7858C42.6834 68.1494 42.582 68.1291 42.4876 68.0896C42.3931 68.0501 42.3074 67.9923 42.2355 67.9194C42.1636 67.8465 42.1069 67.7601 42.0686 67.6651C42.0304 67.5702 42.0114 67.4686 42.0127 67.3662C42.0127 63.0738 42.1246 42.2323 42.0127 37.3296C42.0114 37.2272 42.0304 37.1256 42.0686 37.0306C42.1069 36.9357 42.1636 36.8493 42.2355 36.7764C42.3074 36.7035 42.3931 36.6457 42.4876 36.6062C42.582 36.5667 42.6834 36.5464 42.7858 36.5464H51.7164C51.8196 36.545 51.9221 36.5643 52.0177 36.6032C52.1134 36.6421 52.2002 36.6997 52.2732 36.7727C52.3463 36.8457 52.4039 36.9326 52.4428 37.0283C52.4816 37.1239 52.501 37.2264 52.4996 37.3296V41.0219C53.451 39.3703 54.8366 38.0108 56.506 37.0909C58.1754 36.171 60.0649 35.7259 61.9693 35.8039C68.8758 35.8039 74.0633 40.32 74.0633 50.044L74.0836 67.3662ZM52.5199 41.1236V41.0117L52.4487 41.1236H52.5199ZM52.4487 41.1236H52.5199V41.0117L52.4487 41.1236ZM52.4487 41.1236H52.5199V41.0117L52.4487 41.1236ZM52.4487 41.1236H52.5199V41.0117L52.4487 41.1236ZM52.4487 41.1236H52.5199V41.0117L52.4487 41.1236ZM52.4487 41.1236H52.5199V41.0117L52.4487 41.1236ZM52.4487 41.1236H52.5199V41.0117L52.4487 41.1236ZM52.4487 41.1236H52.5199V41.0117L52.4487 41.1236ZM52.4487 41.1236H52.5199V41.0117L52.4487 41.1236ZM52.4487 41.1236H52.5199V41.0117L52.4487 41.1236ZM52.4487 41.1236H52.5199V41.0117L52.4487 41.1236ZM52.4487 41.1236H52.5199V41.0117L52.4487 41.1236ZM52.4487 41.1236H52.5199V41.0117L52.4487 41.1236ZM52.4487 41.1236H52.5199V41.0117L52.4487 41.1236ZM52.4487 41.1236H52.5199V41.0117L52.4487 41.1236Z" fill="url(#paint0_linear_1031_29)"/>
</g>
<defs>
<linearGradient id="paint0_linear_1031_29" x1="47.8207" y1="0" x2="47.8207" y2="92.907" gradientUnits="userSpaceOnUse">
<stop stop-color="#1D1D1D"/>
<stop offset="1" stop-color="#005274"/>
</linearGradient>
<clipPath id="clip0_1031_29">
<rect width="94" height="94" fill="white"/>
</clipPath>
</defs>
</svg>
