<svg width="73" height="72" viewBox="0 0 73 72" fill="none" xmlns="http://www.w3.org/2000/svg">
<circle cx="36.5" cy="36" r="36" fill="#343A3D"/>
<path d="M36.584 23.7285C34.2558 23.7285 31.9799 24.4189 30.0441 25.7124C28.1083 27.0058 26.5995 28.8443 25.7086 30.9952C24.8176 33.1462 24.5845 35.5131 25.0387 37.7965C25.4929 40.0799 26.614 42.1774 28.2603 43.8237C29.9066 45.47 32.004 46.5911 34.2875 47.0453C36.5709 47.4995 38.9378 47.2664 41.0887 46.3754C43.2397 45.4845 45.0782 43.9757 46.3716 42.0399C47.6651 40.1041 48.3555 37.8282 48.3555 35.5C48.352 32.3791 47.1106 29.387 44.9038 27.1802C42.697 24.9734 39.7049 23.732 36.584 23.7285ZM34.217 27.3365C34.217 27.0336 34.2766 26.7337 34.3925 26.4539C34.5084 26.1741 34.6783 25.9198 34.8925 25.7056C35.1067 25.4914 35.3609 25.3216 35.6408 25.2056C35.9206 25.0897 36.2205 25.0301 36.5234 25.0301C36.8263 25.0301 37.1262 25.0897 37.406 25.2056C37.6859 25.3216 37.9401 25.4914 38.1543 25.7056C38.3685 25.9198 38.5384 26.1741 38.6543 26.4539C38.7702 26.7337 38.8299 27.0336 38.8299 27.3365V28.0294C38.8299 28.6411 38.5869 29.2278 38.1543 29.6603C37.7218 30.0929 37.1351 30.3359 36.5234 30.3359C35.9117 30.3359 35.325 30.0929 34.8925 29.6603C34.46 29.2278 34.217 28.6411 34.217 28.0294V27.3365ZM40.977 37.6418C40.977 37.7633 40.9385 37.8816 40.867 37.9798L39.5324 39.813L39.2333 44.4274C39.2174 44.8429 39.0408 45.2359 38.7407 45.5237C38.4406 45.8115 38.0405 45.9716 37.6247 45.9701H35.5526C35.1368 45.9715 34.7367 45.8114 34.4366 45.5236C34.1365 45.2358 33.9598 44.8428 33.9438 44.4273L33.6448 39.8144L32.3018 37.9826C32.2296 37.8841 32.1907 37.7652 32.1907 37.6431V33.0768C32.1914 32.4497 32.4409 31.8486 32.8842 31.4052C33.3276 30.9618 33.9288 30.7124 34.5558 30.7117H35.049C35.1492 30.7117 35.2477 30.7379 35.3346 30.7878C35.4216 30.8376 35.4939 30.9093 35.5446 30.9958L35.8891 31.5847L36.2636 31.3624C36.3501 31.311 36.4487 31.2832 36.5494 31.2819C36.65 31.2806 36.7493 31.3058 36.8371 31.355L37.2886 31.6077L37.6905 30.9775C37.7424 30.896 37.814 30.829 37.8986 30.7826C37.9832 30.7361 38.0782 30.7118 38.1748 30.7118H38.6121C39.2391 30.7125 39.8401 30.9618 40.2834 31.4051C40.7267 31.8485 40.9761 32.4495 40.9768 33.0764V37.6415L40.977 37.6418Z" fill="white"/>
<path d="M52.2317 32.1097C51.8038 30.1845 51.031 28.3525 49.9506 26.7025C49.8735 26.5828 49.8364 26.4417 49.8448 26.2996C49.8533 26.1574 49.9068 26.0217 49.9976 25.912L52.5338 22.8495L49.0368 19.3525L45.9743 21.8886C45.8633 21.9805 45.7256 22.0342 45.5817 22.0417C45.4378 22.0491 45.2953 22.01 45.1754 21.9301C43.5328 20.8431 41.7021 20.0715 39.7769 19.6547C39.6381 19.6247 39.5123 19.5513 39.4179 19.4452C39.3235 19.3391 39.2653 19.2057 39.2516 19.0642L38.8688 15.0896H34.1279L33.745 19.0642C33.7314 19.2057 33.6732 19.3391 33.5787 19.4452C33.4843 19.5513 33.3586 19.6247 33.2197 19.6547C31.2944 20.0715 29.4636 20.8431 27.8207 21.9302C27.7008 22.0101 27.5584 22.0492 27.4145 22.0418C27.2706 22.0343 27.1329 21.9806 27.0219 21.8887L23.9594 19.3526L20.4624 22.8496L22.9985 25.9121C23.0894 26.0218 23.1429 26.1575 23.1513 26.2997C23.1598 26.4418 23.1227 26.5829 23.0455 26.7026C21.9652 28.3527 21.1924 30.1846 20.7644 32.1098C20.7344 32.2487 20.661 32.3744 20.5549 32.4688C20.4487 32.5632 20.3153 32.6214 20.1739 32.635L16.1992 33.0179V37.9817L20.1739 38.3645C20.3153 38.3781 20.4487 38.4363 20.5549 38.5307C20.661 38.6252 20.7344 38.7509 20.7644 38.8897C21.1813 40.815 21.9529 42.6458 23.04 44.2885C23.1199 44.4084 23.1591 44.5509 23.1516 44.6949C23.1441 44.8388 23.0905 44.9765 22.9985 45.0875L20.4624 48.15L23.9594 51.6469L27.0219 49.1108C27.1316 49.02 27.2673 48.9665 27.4095 48.9581C27.5516 48.9496 27.6928 48.9867 27.8124 49.0639C29.4625 50.1442 31.2944 50.917 33.2196 51.3449C33.3585 51.3749 33.4842 51.4483 33.5786 51.5544C33.6731 51.6606 33.7313 51.794 33.745 51.9354L34.1278 55.91H38.8684L39.2512 51.9354C39.2649 51.794 39.3231 51.6606 39.4175 51.5544C39.512 51.4483 39.6377 51.3749 39.7765 51.3449C41.7018 50.917 43.5337 50.1442 45.1838 49.0639C45.3034 48.9867 45.4446 48.9496 45.5867 48.9581C45.7288 48.9665 45.8646 49.02 45.9743 49.1108L49.0368 51.6469L52.5338 48.15L49.9976 45.0875C49.9057 44.9765 49.852 44.8388 49.8446 44.6949C49.8371 44.5509 49.8763 44.4084 49.9562 44.2885C51.0432 42.6459 51.8149 40.8152 52.2317 38.89C52.2618 38.7512 52.3351 38.6255 52.4413 38.5311C52.5474 38.4367 52.6808 38.3784 52.8222 38.3648L56.7969 37.982V33.018L52.8222 32.6351C52.6808 32.6215 52.5474 32.5632 52.4412 32.4688C52.3351 32.3744 52.2617 32.2486 52.2317 32.1097ZM36.5821 48.6112C29.3525 48.6112 23.4707 42.7295 23.4707 35.4999C23.4707 28.2703 29.3525 22.3886 36.5821 22.3886C43.8117 22.3886 49.6934 28.2703 49.6934 35.4999C49.6934 42.7295 43.8117 48.6112 36.5821 48.6112Z" fill="white"/>
<path d="M36.5237 29.1873C36.8307 29.1869 37.125 29.0648 37.3421 28.8477C37.5592 28.6306 37.6813 28.3363 37.6817 28.0293V27.3365C37.6817 27.1844 37.6518 27.0338 37.5936 26.8933C37.5354 26.7528 37.4501 26.6252 37.3425 26.5176C37.235 26.4101 37.1073 26.3248 36.9668 26.2666C36.8264 26.2084 36.6758 26.1785 36.5237 26.1785C36.3716 26.1785 36.221 26.2084 36.0805 26.2666C35.94 26.3248 35.8124 26.4101 35.7049 26.5176C35.5973 26.6252 35.512 26.7528 35.4538 26.8933C35.3956 27.0338 35.3657 27.1844 35.3657 27.3365V28.0294C35.3661 28.3363 35.4883 28.6306 35.7053 28.8477C35.9224 29.0648 36.2167 29.1869 36.5237 29.1873ZM38.6126 31.8602H38.4902L37.9666 32.6821C37.8878 32.8057 37.7648 32.8946 37.6226 32.9304C37.4804 32.9662 37.3299 32.9463 37.2019 32.8747L36.5661 32.519L35.9834 32.8649C35.9183 32.9042 35.846 32.9303 35.7708 32.9415C35.6955 32.9527 35.6188 32.9488 35.5451 32.9301C35.4713 32.9114 35.4021 32.8782 35.3412 32.8325C35.2804 32.7868 35.2293 32.7295 35.1908 32.6639L34.7205 31.86H34.5565C34.2339 31.8603 33.9247 31.9886 33.6966 32.2167C33.4685 32.4448 33.3402 32.7541 33.3398 33.0767V37.4546L34.6707 39.2699C34.7354 39.3582 34.7735 39.4631 34.7807 39.5723L35.091 44.3601C35.091 44.3656 35.0916 44.371 35.0919 44.3765C35.0958 44.496 35.1461 44.6094 35.2322 44.6924C35.3183 44.7755 35.4333 44.8217 35.5529 44.8214H37.6247C37.7443 44.8218 37.8595 44.7756 37.9456 44.6925C38.0317 44.6095 38.0821 44.4961 38.086 44.3765C38.086 44.371 38.0863 44.3656 38.0869 44.3601L38.3973 39.5723C38.4043 39.4637 38.442 39.3594 38.5061 39.2714L39.8287 37.4547V33.0763C39.8282 32.7539 39.6999 32.4449 39.472 32.2169C39.244 31.989 38.935 31.8607 38.6126 31.8602Z" fill="white"/>
</svg>
