<svg width="85" height="94" viewBox="0 0 85 94" fill="none" xmlns="http://www.w3.org/2000/svg">
<path d="M63.9389 34.3918L64.0122 34.709L64.2582 34.9222C66.9263 37.2346 71.8971 41.7488 76.1935 47.0396C78.3413 49.6845 80.3027 52.502 81.7237 55.3163C83.148 58.1373 84 60.8979 84 63.4455C84 63.8189 83.8583 64.1678 83.6205 64.4176C83.3844 64.6657 83.0749 64.7953 82.7632 64.7953H67.1053H66.1053V65.7953V72.8448C66.1053 73.2183 65.9636 73.5671 65.7258 73.8169C65.4896 74.065 65.1801 74.1946 64.8684 74.1946H20.1316C19.8199 74.1946 19.5104 74.065 19.2742 73.8169C19.0364 73.5671 18.8947 73.2182 18.8947 72.8448V65.7953V64.7953H17.8947H2.23684C1.92515 64.7953 1.61564 64.6657 1.37946 64.4176L0.655156 65.107L1.37946 64.4176C1.14169 64.1678 1 63.8189 1 63.4455C1 58.3216 4.43619 52.4271 8.74601 47.103C13.0142 41.8304 17.9623 37.3283 20.6492 35.0189L20.8986 34.8046L20.9721 34.4841C26.4468 10.6119 40.8922 1.78065 41.9164 1.1545C41.9212 1.15155 41.9257 1.14878 41.93 1.14619C42.1089 1.04914 42.3041 1 42.5 1C42.6976 1 42.8945 1.04999 43.0746 1.1487C43.0763 1.14967 43.078 1.15068 43.0797 1.15173C43.8699 1.62219 58.3566 10.2476 63.9389 34.3918ZM41.7289 92.6733L41.7266 92.671C38.3782 89.3624 35.7341 85.3484 33.9652 80.8943H51.0348C49.2659 85.3484 46.6218 89.3624 43.2734 92.671L43.2711 92.6733C43.0546 92.8886 42.7779 93 42.5 93C42.2222 93 41.9454 92.8886 41.7289 92.6733ZM38.0263 62.0956H46.9737C47.8485 62.0956 48.6769 61.7301 49.2797 61.0969C49.8809 60.4653 50.2105 59.6188 50.2105 58.7458C50.2105 57.8728 49.8809 57.0263 49.2797 56.3947C48.6769 55.7615 47.8485 55.396 46.9737 55.396H38.0263C37.1515 55.396 36.3231 55.7615 35.7203 56.3947C35.1191 57.0263 34.7895 57.8728 34.7895 58.7458C34.7895 59.6188 35.1191 60.4653 35.7203 61.0969C36.3231 61.7301 37.1515 62.0956 38.0263 62.0956ZM35.7119 50.5347C37.7165 51.9418 40.0789 52.6963 42.5 52.6963C45.7478 52.6963 48.852 51.3405 51.1327 48.9445C53.4119 46.5502 54.6842 43.313 54.6842 39.9471C54.6842 37.4362 53.9757 34.978 52.6431 32.883C51.3103 30.7875 49.4108 29.1465 47.179 28.1754C44.9466 27.204 42.487 26.9489 40.1135 27.4449C37.7405 27.9408 35.5678 29.1633 33.8673 30.9498C32.1673 32.7356 31.0147 35.0052 30.5481 37.4689C30.0817 39.9326 30.3207 42.4867 31.2368 44.8102C32.1531 47.134 33.7079 49.128 35.7119 50.5347ZM59.5373 81.272C59.7735 81.0239 60.0831 80.8943 60.3947 80.8943C60.7064 80.8943 61.0159 81.0239 61.2521 81.272C61.4899 81.5218 61.6316 81.8707 61.6316 82.2441V86.9438C61.6316 87.3172 61.4899 87.6661 61.2521 87.9159C61.0159 88.164 60.7064 88.2936 60.3947 88.2936C60.083 88.2936 59.7735 88.164 59.5374 87.9159C59.2996 87.6661 59.1579 87.3172 59.1579 86.9438V82.2441C59.1579 81.8707 59.2996 81.5218 59.5373 81.272ZM23.7479 81.272C23.9841 81.0239 24.2936 80.8943 24.6053 80.8943C24.9169 80.8943 25.2265 81.0239 25.4626 81.272C25.7004 81.5218 25.8421 81.8707 25.8421 82.2441V86.9438C25.8421 87.3172 25.7004 87.6661 25.4626 87.9159C25.2265 88.164 24.917 88.2936 24.6053 88.2936C24.2936 88.2936 23.9841 88.164 23.7479 87.9159C23.5101 87.6661 23.3684 87.3172 23.3684 86.9438V82.2441C23.3684 81.8707 23.5101 81.5218 23.7479 81.272Z" stroke="white" stroke-width="2"/>
</svg>
